<svg xmlns="http://www.w3.org/2000/svg" width="57" height="41" viewBox="0 0 57 41" fill="none">
<path fill-rule="evenodd" clip-rule="evenodd" d="M44.5135 11.3062C46.5397 8.46753 50.3696 5.41159 55.5835 2.86756C56.9385 2.20642 56.3273 0.15728 54.8315 0.346478C43.8765 1.7322 36.7759 6.53009 32.8984 13.6651C31.4563 16.3188 30.5502 19.1435 30.0677 22.0269C29.7495 23.928 29.6655 25.3547 29.6655 27.0026C29.6655 34.3664 35.635 40.3359 42.9988 40.3359C50.3626 40.3359 56.3322 34.3664 56.3322 27.0026C56.3322 19.6388 50.2674 13.6651 43.298 13.6651C43.6657 12.6556 43.754 12.3703 44.5135 11.3062ZM15.1802 11.3062C17.2064 8.46753 21.0362 5.41159 26.2502 2.86756C27.6052 2.20642 26.9939 0.15728 25.4982 0.346478C14.5432 1.7322 7.44257 6.53009 3.56508 13.6651C2.12293 16.3188 1.21687 19.1435 0.734348 22.0269C0.416206 23.928 0.332188 25.3547 0.332188 27.0026C0.332188 34.3664 6.30172 40.3359 13.6655 40.3359C21.0293 40.3359 26.9988 34.3664 26.9988 27.0026C26.9988 19.6388 20.9341 13.6651 13.9647 13.6651C14.3324 12.6556 14.4207 12.3703 15.1802 11.3062Z" fill="#B4C8FF"/>
</svg>