<svg xmlns="http://www.w3.org/2000/svg" width="588" height="179" viewBox="0 0 588 179" fill="none">
<path d="M561.329 31.0377C561.26 38.3949 561.187 45.9984 556.605 51.576C551.448 57.8491 540.973 60.8907 524.592 60.8907C487.949 60.8907 450.811 45.6062 414.896 30.8234C378.944 16.0204 341.762 0.711716 305.03 0.711716C300.831 0.711716 297.131 0.92609 293.829 1.29812C268.101 4.22646 267.952 17.8281 267.827 31.0377C267.759 38.3949 267.686 45.9984 263.102 51.576C257.945 57.8491 247.474 60.8907 231.091 60.8907C194.45 60.8907 157.312 45.6062 121.398 30.8234C85.4427 16.0204 48.261 0.711716 11.5305 0.711716C7.33118 0.711716 3.63041 0.92609 0.328125 1.29812V1.76327C3.69828 1.37496 7.42838 1.18491 11.5305 1.18491C48.1701 1.18491 85.3073 16.4732 121.221 31.2562C157.177 46.0591 194.357 61.3639 231.091 61.3639C268.01 61.3639 268.154 45.95 268.295 31.0418C268.365 23.6848 268.434 16.081 273.021 10.5035C276.886 5.80387 283.737 2.9161 293.829 1.76327C297.199 1.37496 300.928 1.18491 305.03 1.18491C341.673 1.18491 378.806 16.4732 414.722 31.2562C450.678 46.0591 487.856 61.3639 524.592 61.3639C561.511 61.3639 561.652 45.95 561.794 31.0418C561.863 23.6848 561.935 16.081 566.518 10.5035C570.385 5.80387 577.236 2.9161 587.331 1.76327V1.29812C561.6 4.22658 561.45 17.8282 561.329 31.0377Z" fill="#086047"/>
<path d="M564.132 40.7971C563.376 48.1544 562.599 55.758 557.483 61.3477C551.74 67.6208 540.981 70.6744 524.592 70.6744C487.949 70.6744 452.239 55.3858 417.703 40.6031C383.122 25.7999 347.364 10.4915 310.631 10.4915C303.934 10.4915 298.411 11.005 293.829 11.9271C273.175 16.0769 271.88 28.603 270.631 40.7971C269.876 48.1544 269.096 55.758 263.984 61.3477C258.241 67.6208 247.48 70.6744 231.091 70.6744C194.45 70.6744 158.737 55.3858 124.202 40.6031C89.6208 25.7999 53.8659 10.4915 17.1322 10.4915C10.4334 10.4915 4.90953 11.005 0.328125 11.9271L0.328125 12.4125C5.08249 11.45 10.661 10.9604 17.1322 10.9604C53.7698 10.9604 89.4833 26.2488 124.019 41.0358C158.6 55.8387 194.355 71.1434 231.091 71.1434C267.991 71.1434 269.567 55.7377 271.094 40.8457C271.848 33.4846 272.627 25.8727 277.739 20.2951C281.214 16.4891 286.542 13.8845 293.829 12.4124C298.583 11.4499 304.16 10.9603 310.632 10.9603C347.271 10.9603 382.985 26.2486 417.521 41.0357C452.098 55.8386 487.856 71.1433 524.593 71.1433C561.491 71.1433 563.068 55.7376 564.593 40.8456C565.35 33.4845 566.126 25.8726 571.238 20.295C574.717 16.489 580.043 13.8843 587.332 12.4123V11.9269C566.676 16.0769 565.382 28.603 564.132 40.7971Z" fill="#086047"/>
<path d="M566.935 50.5532C565.495 57.9142 564.006 65.526 558.368 71.1197C552.03 77.4008 540.985 80.4545 524.592 80.4545C487.953 80.4545 453.663 65.1662 420.506 50.3832C387.304 35.5803 352.97 20.2756 316.233 20.2756C306.684 20.2756 299.424 21.311 293.829 23.0987C277.816 28.219 275.592 39.5236 273.433 50.5532C271.994 57.9142 270.505 65.526 264.869 71.1197C258.533 77.4008 247.485 80.4545 231.091 80.4545C194.453 80.4545 160.164 65.1662 127.007 50.3832C93.8028 35.5803 59.4686 20.2756 22.733 20.2756C13.1838 20.2756 5.92183 21.311 0.328125 23.0987V23.5839C6.23221 21.687 13.66 20.7446 22.733 20.7446C59.3696 20.7446 93.6552 36.033 126.817 50.8159C160.019 65.6191 194.354 80.9236 231.091 80.9236C267.972 80.9236 270.98 65.53 273.892 50.646C275.331 43.285 276.819 35.673 282.457 30.0794C285.285 27.2727 289.064 25.1208 293.829 23.5839C299.733 21.687 307.161 20.7446 316.233 20.7446C352.869 20.7446 387.154 36.033 420.315 50.8159C453.521 65.6191 487.856 80.9236 524.592 80.9236C561.475 80.9236 564.48 65.53 567.392 50.646C568.832 43.285 570.316 35.673 575.954 30.0794C578.785 27.2727 582.563 25.1208 587.331 23.5839V23.0987C571.315 28.219 569.09 39.5235 566.935 50.5532Z" fill="#086047"/>
<path d="M569.738 60.3126C567.614 67.6816 565.418 75.2935 559.25 80.8913C558.021 82.0116 556.637 83.0228 555.121 83.9368C548.124 88.1633 538.073 90.2381 524.592 90.2381C510.008 90.2381 496.03 87.7871 482.468 83.9368C461.971 78.1165 442.439 69.0649 423.309 60.1668C391.482 45.3638 358.571 30.0512 321.835 30.0512C309.042 30.0512 300.16 31.9078 293.829 34.9491C281.914 40.6722 279.043 50.5974 276.239 60.3126C274.112 67.6816 271.915 75.2935 265.751 80.8913C264.518 82.0116 263.137 83.0228 261.622 83.9368C254.621 88.1633 244.57 90.2381 231.091 90.2381C216.506 90.2381 202.526 87.7871 188.969 83.9368C168.469 78.1165 148.939 69.0649 129.808 60.1668C97.9809 45.3638 65.0703 30.0512 28.3347 30.0512C15.5418 30.0512 6.65787 31.9078 0.328125 34.9491L0.328125 35.4588C7.15127 32.1503 16.3951 30.5245 28.3347 30.5245C64.9693 30.5245 97.8311 45.8088 129.613 60.5958C148.273 69.2713 167.312 78.0964 187.268 83.937C201.353 88.0622 215.89 90.7034 231.091 90.7034C246.327 90.7034 256.015 88.0745 262.45 83.937C271.589 78.0723 274.167 69.1743 276.687 60.4461C278.813 53.0768 281.01 45.465 287.175 39.8673C289.058 38.1605 291.279 36.6924 293.829 35.4588C300.654 32.1503 309.895 30.5245 321.835 30.5245C358.47 30.5245 391.332 45.8088 423.114 60.5958C441.772 69.2713 460.814 78.0964 480.77 83.937C494.853 88.0622 509.389 90.7034 524.592 90.7034C539.828 90.7034 549.515 88.0745 555.954 83.937C565.091 78.0723 567.667 69.1743 570.187 60.4461C572.314 53.0768 574.51 45.465 580.674 39.8673C582.559 38.1605 584.779 36.6924 587.332 35.4588V34.9491C575.416 40.6722 572.545 50.5974 569.738 60.3126Z" fill="#086047"/>
<path d="M572.545 70.0715C570.737 74.8198 568.896 79.6128 566.021 83.9365C559.982 93.0205 549.341 100.013 524.592 100.013C499.84 100.013 477.461 93.0244 456.167 83.9365C445.946 79.5803 435.972 74.7392 426.112 69.9463C395.664 55.1391 364.173 39.8346 327.437 39.8346C310.943 39.8346 300.67 42.9206 293.829 47.6527C285.386 53.4969 282.181 61.8611 279.046 70.0716C277.235 74.82 275.395 79.6129 272.521 83.9366C266.482 93.0206 255.842 100.013 231.091 100.013C206.338 100.013 183.959 93.0246 162.665 83.9366C152.446 79.5804 142.473 74.7393 132.612 69.9464C102.161 55.1392 70.6741 39.8347 33.9344 39.8347C17.4416 39.8347 7.16647 42.9207 0.328125 47.6528V48.2554C7.10375 43.4464 17.3446 40.3078 33.9344 40.3078C70.5679 40.3078 102.007 55.5881 132.41 70.3709C141.945 75.0061 151.581 79.6896 161.449 83.9365C183.097 93.2631 205.855 100.487 231.091 100.487C256.337 100.487 267.04 93.2671 273.101 83.9365C275.887 79.6532 277.694 74.921 279.48 70.2416C282.548 62.2091 285.684 54.0311 293.829 48.2512V48.2553C300.605 43.4462 310.846 40.3077 327.437 40.3077C364.068 40.3077 395.506 55.588 425.909 70.3708C435.446 75.006 445.08 79.6895 454.949 83.9363C476.596 93.263 499.354 100.486 524.592 100.486C549.838 100.486 560.54 93.267 566.603 83.9363C569.386 79.6531 571.194 74.9209 572.981 70.2414C576.047 62.209 579.182 54.0309 587.332 48.2511V47.6526C578.887 53.497 575.679 61.8611 572.545 70.0715Z" fill="#086047"/>
<path d="M573.378 83.9367C566.769 97.2594 557.741 109.793 524.592 109.793C491.439 109.793 463.714 97.2715 437.23 83.9367C434.447 82.5373 431.677 81.1297 428.918 79.7262C399.842 64.923 369.779 49.6104 333.038 49.6104C312.427 49.6104 301.074 54.4234 293.829 61.2626V61.2587C288.12 66.6419 284.963 73.2872 281.853 79.8353C281.205 81.2023 280.554 82.5736 279.879 83.9366C273.266 97.2593 264.239 109.793 231.091 109.793C197.939 109.793 170.214 97.2714 143.729 83.9366C140.948 82.5372 138.178 81.1296 135.418 79.7261C106.342 64.9229 76.2766 49.6103 39.5351 49.6103C18.929 49.6103 7.57393 54.4233 0.328125 61.2625L0.328125 61.9341C7.49816 54.9936 18.7915 50.0794 39.5351 50.0794C76.1644 50.0794 106.179 65.368 135.207 80.1467C137.69 81.4126 140.182 82.6785 142.682 83.9366C169.469 97.4534 197.486 110.258 231.091 110.258C264.704 110.258 273.718 97.4695 280.397 83.9366C281.037 82.6382 281.658 81.3399 282.273 80.0375C285.297 73.6713 288.368 67.2163 293.829 61.9301V61.9343C300.997 54.9937 312.289 50.0795 333.038 50.0795C369.666 50.0795 399.68 65.3681 428.708 80.1469C431.191 81.4127 433.683 82.6786 436.182 83.9367C462.969 97.4535 490.986 110.258 524.592 110.258C558.206 110.258 567.218 97.4696 573.895 83.9367C574.538 82.6383 575.157 81.34 575.772 80.0376C578.797 73.6715 581.867 67.2164 587.331 61.9302V61.2588C581.62 66.6421 578.462 73.2873 575.355 79.8354C574.704 81.2024 574.053 82.5737 573.378 83.9367Z" fill="#086047"/>
<path d="M578.163 89.5989C569.795 104.337 561.144 119.573 524.593 119.573C487.962 119.573 459.371 104.289 431.722 89.514C428.244 87.6495 424.75 85.7849 421.227 83.9367C396.701 71.0991 370.767 59.3943 338.641 59.3943C313.666 59.3943 301.625 66.4601 293.83 75.6371V75.6331C291.592 78.2662 289.699 81.0729 287.956 83.9367C286.816 85.8133 285.736 87.7102 284.662 89.5989C276.296 104.337 267.644 119.573 231.092 119.573C194.463 119.573 165.872 104.289 138.223 89.514C134.745 87.6495 131.249 85.7849 127.727 83.9367C103.202 71.0991 77.2677 59.3943 45.1376 59.3943C20.1666 59.3943 8.12601 66.4601 0.329102 75.6371L0.329102 76.3693C8.05718 67.0708 19.9977 59.8674 45.1376 59.8674C76.8086 59.8674 102.465 71.2934 126.704 83.9367C130.5 85.9185 134.262 87.9244 138.005 89.9265C165.704 104.73 194.347 120.047 231.092 120.047C267.916 120.047 276.634 104.685 285.069 89.8336C286.186 87.8639 287.311 85.8863 288.507 83.9369C290.1 81.3319 291.823 78.776 293.83 76.3614V76.3694C301.556 67.0709 313.496 59.8675 338.641 59.8675C370.31 59.8675 395.964 71.2935 420.203 83.9369C424.001 85.9186 427.763 87.9246 431.504 89.9267C459.205 104.73 487.849 120.047 524.593 120.047C561.415 120.047 570.135 104.685 578.568 89.8338C579.684 87.864 580.813 85.8864 582.006 83.937C583.603 81.3321 585.322 78.7761 587.333 76.3615V75.6334C585.092 78.2664 583.199 81.0731 581.456 83.937C580.315 85.8133 579.239 87.7102 578.163 89.5989Z" fill="#086047"/>
<path d="M524.592 129.353C487.965 129.353 460.798 114.072 434.528 99.2894C425.108 93.991 415.567 88.64 405.521 83.9364C387.494 75.4992 367.834 69.1738 344.238 69.1738C320.625 69.1738 307.99 75.4912 299.375 83.9364C297.333 85.9423 295.514 88.0658 293.829 90.2538V90.2457C291.542 93.2144 289.498 96.3044 287.47 99.3661C277.728 114.109 267.654 129.353 231.091 129.353C194.464 129.353 167.296 114.072 141.028 99.2894C131.607 93.991 122.064 88.64 112.023 83.9364C93.9949 75.4992 74.3344 69.1738 50.7384 69.1738C27.1253 69.1738 14.4912 75.4912 5.87419 83.9364C3.83163 85.9423 2.01266 88.0658 0.328125 90.2538V91.0223C2.19976 88.5592 4.23214 86.1689 6.55983 83.9364C15.107 75.73 27.6298 69.6388 50.7385 69.6388C73.8521 69.6388 93.1964 75.7299 110.923 83.9364C121.29 88.7371 131.108 94.2499 140.799 99.7019C167.123 114.509 194.342 129.822 231.091 129.822C267.905 129.822 278.051 114.469 287.86 99.625C289.772 96.7372 291.695 93.8293 293.829 91.0184V91.0223C295.7 88.5592 297.733 86.1689 300.059 83.9364C308.609 75.73 321.131 69.6388 344.238 69.6388C367.352 69.6388 386.693 75.7299 404.425 83.9364C414.791 88.7371 424.607 94.2499 434.298 99.7019C460.624 114.509 487.843 129.822 524.592 129.822C561.402 129.822 571.55 114.469 581.362 99.625C583.271 96.7372 585.196 93.8293 587.332 91.0184V90.2457C585.042 93.2144 582.996 96.3044 580.969 99.3661C571.23 114.109 561.155 129.353 524.592 129.353Z" fill="#086047"/>
<path d="M524.592 139.133C487.965 139.133 462.225 123.848 437.335 109.073C421.125 99.4554 404.542 89.6474 384.845 83.9365C374.224 80.8544 362.717 78.9535 349.839 78.9535C336.925 78.9535 327.133 80.8422 319.36 83.9365C307.286 88.7414 300.115 96.4462 293.829 104.491V104.483C292.624 106.028 291.448 107.585 290.279 109.134C279.162 123.88 267.663 139.133 231.091 139.133C194.467 139.133 168.726 123.848 143.833 109.073C127.625 99.4554 111.04 89.6474 91.3468 83.9365C80.7258 80.8544 69.2149 78.9535 56.339 78.9535C43.4277 78.9535 33.6299 80.8422 25.8584 83.9365C13.7873 88.7414 6.61226 96.4462 0.328125 104.491L0.328125 105.251C6.85405 96.8426 14.2758 88.7576 27.1972 83.9366C34.7332 81.1215 44.1337 79.4228 56.3391 79.4228C68.5203 79.4228 79.478 81.1376 89.6208 83.9366C109.973 89.5584 126.982 99.6172 143.595 109.478C168.544 124.289 194.338 139.602 231.091 139.602C267.895 139.602 279.463 124.257 290.652 109.421C291.699 108.03 292.752 106.63 293.829 105.243V105.251C300.356 96.8425 307.776 88.7575 320.698 83.9365C328.233 81.1214 337.633 79.4227 349.839 79.4227C362.021 79.4227 372.978 81.1375 383.122 83.9365C403.474 89.5583 420.481 99.6171 437.097 109.478C462.043 124.289 487.839 139.601 524.592 139.601C561.398 139.601 572.965 124.256 584.152 109.421C585.2 108.03 586.252 106.63 587.331 105.243V104.482C586.126 106.027 584.949 107.585 583.78 109.134C572.662 123.88 561.163 139.133 524.592 139.133Z" fill="#086047"/>
<path d="M524.592 148.916C487.969 148.916 463.653 133.636 440.138 118.857C416.566 104.046 392.194 88.7334 355.441 88.7334C319.363 88.7334 306.17 103.484 293.829 118.036V118.032C293.584 118.323 293.335 118.615 293.089 118.906C280.593 133.656 267.671 148.916 231.091 148.916C194.469 148.916 170.154 133.636 146.639 118.857C123.067 104.046 98.6917 88.7334 61.9409 88.7334C25.8634 88.7334 12.6721 103.484 0.328125 118.036L0.328125 118.76C12.7085 104.151 25.734 89.2024 61.9409 89.2024C98.5582 89.2024 122.877 104.479 146.39 119.258C169.962 134.069 194.336 149.381 231.091 149.381C267.888 149.381 280.879 134.044 293.442 119.209C293.572 119.059 293.701 118.906 293.829 118.752V118.76C306.207 104.151 319.234 89.2023 355.441 89.2023C392.06 89.2023 416.376 104.479 439.891 119.257C463.463 134.069 487.84 149.381 524.592 149.381C561.39 149.381 574.381 134.044 586.943 119.209C587.073 119.059 587.202 118.906 587.332 118.752V118.032C587.085 118.323 586.834 118.615 586.587 118.906C574.094 133.656 561.171 148.916 524.592 148.916Z" fill="#086047"/>
<path d="M524.592 158.688C487.973 158.688 465.085 143.416 442.945 128.641C420.748 113.83 397.795 98.509 361.043 98.509C324.253 98.509 309.843 113.846 295.902 128.673C295.213 129.405 294.522 130.146 293.829 130.874V130.869C280.547 144.904 265.865 158.688 231.091 158.688C194.474 158.688 171.583 143.416 149.444 128.641C127.247 113.83 104.297 98.5089 67.5415 98.5089C30.7562 98.5089 16.3404 113.846 2.40097 128.673C1.71341 129.405 1.02071 130.145 0.328125 130.873L0.328125 131.557C1.13598 130.707 1.94084 129.854 2.74068 128.997C16.6115 114.238 30.9554 98.982 67.5415 98.982C104.157 98.982 127.048 114.258 149.186 129.029C171.383 143.844 194.333 159.161 231.091 159.161C265.77 159.161 280.569 145.535 293.829 131.553V131.557C294.637 130.707 295.441 129.854 296.241 128.997C310.114 114.238 324.456 98.982 361.043 98.982C397.658 98.982 420.55 114.258 442.686 129.029C464.883 143.844 487.835 159.161 524.592 159.161C559.27 159.161 574.069 145.535 587.331 131.553V130.869C574.049 144.904 559.367 158.688 524.592 158.688Z" fill="#086047"/>
<path d="M445.753 138.425C424.932 123.61 403.406 108.293 366.646 108.293C329.864 108.293 314.026 123.622 298.711 138.445C297.097 140.01 295.479 141.575 293.83 143.128V143.124C279.892 156.261 263.822 168.471 231.092 168.471C194.479 168.471 173.011 153.195 152.252 138.425C131.431 123.609 109.904 108.293 73.1443 108.293C36.363 108.293 20.5267 123.621 5.20987 138.445C3.59608 140.01 1.97725 141.575 0.329102 143.128V143.775C2.09049 142.121 3.81656 140.451 5.5345 138.784C20.7825 124.026 36.5531 108.762 73.1443 108.762C109.755 108.762 131.222 124.038 151.982 138.809C172.801 153.62 194.331 168.941 231.092 168.941C263.752 168.941 279.899 156.851 293.83 143.767V143.775C295.591 142.121 297.318 140.451 299.037 138.785C314.285 124.026 330.054 108.762 366.646 108.762C403.253 108.762 424.721 124.038 445.482 138.809C466.303 153.62 487.833 168.941 524.593 168.941C557.253 168.941 573.399 156.852 587.333 143.767V143.124C573.391 156.261 557.322 168.471 524.593 168.471C487.978 168.472 466.513 153.195 445.753 138.425Z" fill="#086047"/>
<path d="M448.559 148.209C429.113 133.393 409.007 118.069 372.242 118.069C335.469 118.069 318.211 133.397 301.519 148.221C298.991 150.461 296.449 152.718 293.829 154.931V154.926C279.213 167.27 262.132 178.247 231.091 178.247C194.481 178.247 174.44 162.975 155.058 148.209C135.613 133.393 115.509 118.069 78.7449 118.069C41.9698 118.069 24.7097 133.397 8.01682 148.221C5.48995 150.461 2.948 152.718 0.328125 154.931L0.328125 155.549C3.05717 153.248 5.70027 150.902 8.3272 148.572C24.9534 133.806 42.1457 118.542 78.7449 118.542C115.35 118.542 135.393 133.814 154.777 148.585C174.219 163.4 194.324 178.72 231.091 178.72C262.085 178.72 279.215 167.837 293.829 155.545V155.549C296.558 153.248 299.199 150.902 301.826 148.572C318.454 133.806 335.647 118.542 372.242 118.542C408.853 118.542 428.894 133.814 448.276 148.585C467.722 163.4 487.823 178.721 524.592 178.721C555.586 178.721 572.719 167.837 587.331 155.545V154.927C572.714 167.271 555.634 178.247 524.592 178.247C487.981 178.247 467.94 162.975 448.559 148.209Z" fill="#086047"/>
</svg>